<?xml version="1.0" ?><svg fill="none" height="24" viewBox="0 0 24 24" width="24" xmlns="http://www.w3.org/2000/svg"><path clip-rule="evenodd" d="M3 18C3 16.8954 3.89543 16 5 16H6C7.10457 16 8 16.8954 8 18V19C8 20.1046 7.10457 21 6 21H5C3.89543 21 3 20.1046 3 19V18ZM6 18H5V19H6V18Z" fill="black" fill-rule="evenodd"/><path clip-rule="evenodd" d="M9.5 18C9.5 16.8954 10.3954 16 11.5 16H12.5C13.6046 16 14.5 16.8954 14.5 18V19C14.5 20.1046 13.6046 21 12.5 21H11.5C10.3954 21 9.5 20.1046 9.5 19V18ZM12.5 18H11.5V19H12.5V18Z" fill="black" fill-rule="evenodd"/><path clip-rule="evenodd" d="M16 18C16 16.8954 16.8954 16 18 16H19C20.1046 16 21 16.8954 21 18V19C21 20.1046 20.1046 21 19 21H18C16.8954 21 16 20.1046 16 19V18ZM19 18H18V19H19V18Z" fill="black" fill-rule="evenodd"/><path clip-rule="evenodd" d="M3 11.5C3 10.3954 3.89543 9.5 5 9.5H6C7.10457 9.5 8 10.3954 8 11.5V12.5C8 13.6046 7.10457 14.5 6 14.5H5C3.89543 14.5 3 13.6046 3 12.5V11.5ZM6 11.5H5V12.5H6V11.5Z" fill="black" fill-rule="evenodd"/><path clip-rule="evenodd" d="M9.5 11.5C9.5 10.3954 10.3954 9.5 11.5 9.5H12.5C13.6046 9.5 14.5 10.3954 14.5 11.5V12.5C14.5 13.6046 13.6046 14.5 12.5 14.5H11.5C10.3954 14.5 9.5 13.6046 9.5 12.5V11.5ZM12.5 11.5H11.5V12.5H12.5V11.5Z" fill="black" fill-rule="evenodd"/><path clip-rule="evenodd" d="M16 11.5C16 10.3954 16.8954 9.5 18 9.5H19C20.1046 9.5 21 10.3954 21 11.5V12.5C21 13.6046 20.1046 14.5 19 14.5H18C16.8954 14.5 16 13.6046 16 12.5V11.5ZM19 11.5H18V12.5H19V11.5Z" fill="black" fill-rule="evenodd"/><path clip-rule="evenodd" d="M3 5C3 3.89543 3.89543 3 5 3H6C7.10457 3 8 3.89543 8 5V6C8 7.10457 7.10457 8 6 8H5C3.89543 8 3 7.10457 3 6V5ZM6 5H5V6H6V5Z" fill="black" fill-rule="evenodd"/><path clip-rule="evenodd" d="M9.5 5C9.5 3.89543 10.3954 3 11.5 3H12.5C13.6046 3 14.5 3.89543 14.5 5V6C14.5 7.10457 13.6046 8 12.5 8H11.5C10.3954 8 9.5 7.10457 9.5 6V5ZM12.5 5H11.5V6H12.5V5Z" fill="black" fill-rule="evenodd"/><path clip-rule="evenodd" d="M16 5C16 3.89543 16.8954 3 18 3H19C20.1046 3 21 3.89543 21 5V6C21 7.10457 20.1046 8 19 8H18C16.8954 8 16 7.10457 16 6V5ZM19 5H18V6H19V5Z" fill="black" fill-rule="evenodd"/></svg>