<?xml version="1.0"?>
<svg xmlns="http://www.w3.org/2000/svg" xmlns:xlink="http://www.w3.org/1999/xlink" xmlns:svgjs="http://svgjs.com/svgjs" version="1.1" width="512" height="512" x="0" y="0" viewBox="0 0 512 512" style="enable-background:new 0 0 512 512" xml:space="preserve" class=""><g>
<g xmlns="http://www.w3.org/2000/svg">
	<g>
		<g>
			<path d="M368,256h-64c-8.837,0-16,7.163-16,16v128c0,8.837,7.163,16,16,16h64c17.673,0,32-14.327,32-32v-96     C400,270.327,385.673,256,368,256z M368,384h-48v-96h48V384z" fill="#2bbc9c" data-original="#000000" style="" class=""/>
			<path d="M512,288v-32h-80c-8.837,0-16,7.163-16,16v144h32v-64h64v-32h-64v-32H512z" fill="#2bbc9c" data-original="#000000" style="" class=""/>
			<path d="M32,464V48c0-8.837,7.163-16,16-16h240v64c0,17.673,14.327,32,32,32h64v48h32v-64c0.025-4.253-1.645-8.341-4.64-11.36     l-96-96C312.341,1.645,308.253-0.024,304,0H48C21.49,0,0,21.491,0,48v416c0,26.51,21.49,48,48,48h112v-32H48     C39.164,480,32,472.837,32,464z" fill="#2bbc9c" data-original="#000000" style="" class=""/>
			<path d="M240,256h-64c-8.837,0-16,7.163-16,16v144h32v-48h48c17.673,0,32-14.327,32-32v-48C272,270.327,257.673,256,240,256z      M240,336h-48v-48h48V336z" fill="#2bbc9c" data-original="#000000" style="" class=""/>
		</g>
	</g>
</g>
<g xmlns="http://www.w3.org/2000/svg">
</g>
<g xmlns="http://www.w3.org/2000/svg">
</g>
<g xmlns="http://www.w3.org/2000/svg">
</g>
<g xmlns="http://www.w3.org/2000/svg">
</g>
<g xmlns="http://www.w3.org/2000/svg">
</g>
<g xmlns="http://www.w3.org/2000/svg">
</g>
<g xmlns="http://www.w3.org/2000/svg">
</g>
<g xmlns="http://www.w3.org/2000/svg">
</g>
<g xmlns="http://www.w3.org/2000/svg">
</g>
<g xmlns="http://www.w3.org/2000/svg">
</g>
<g xmlns="http://www.w3.org/2000/svg">
</g>
<g xmlns="http://www.w3.org/2000/svg">
</g>
<g xmlns="http://www.w3.org/2000/svg">
</g>
<g xmlns="http://www.w3.org/2000/svg">
</g>
<g xmlns="http://www.w3.org/2000/svg">
</g>
</g></svg>
